<svg width="50" height="52" viewBox="0 0 50 52" fill="none" xmlns="http://www.w3.org/2000/svg">
<path d="M35.241 51.3331H14.759C13.2151 51.3335 11.7242 50.7698 10.5666 49.7481C9.40909 48.7265 8.66461 47.3171 8.47317 45.7851L6 25.9998L12.5613 23.8148C13.4763 23.5096 14.4489 23.4175 15.4049 23.5453C16.3609 23.6732 17.2751 24.0177 18.0777 24.5526L21.4882 26.8231C22.5283 27.5162 23.7502 27.886 25 27.886C26.2498 27.886 27.4717 27.5162 28.5118 26.8231L31.9223 24.5526C32.7247 24.0172 33.6387 23.6721 34.5947 23.5437C35.5507 23.4153 36.5235 23.5069 37.4387 23.8116L44 25.9998L41.5268 45.7851C41.3354 47.3171 40.5909 48.7265 39.4334 49.7481C38.2758 50.7698 36.7849 51.3335 35.241 51.3331Z" fill="white"/>
<path d="M44 25.9993L46.9703 2.24935M1.25 0.666016H48.75H1.25ZM6 25.9993L8.47317 45.7847C8.66461 47.3167 9.40909 48.726 10.5666 49.7477C11.7242 50.7694 13.2151 51.333 14.759 51.3327H35.241C36.7849 51.333 38.2758 50.7694 39.4334 49.7477C40.5909 48.726 41.3354 47.3167 41.5268 45.7847L44 25.9993H6ZM6 25.9993L12.5613 23.8143C13.4763 23.5092 14.4489 23.417 15.4049 23.5449C16.3609 23.6727 17.2751 24.0173 18.0777 24.5522L21.4882 26.8227C22.5283 27.5157 23.7502 27.8855 25 27.8855C26.2498 27.8855 27.4717 27.5157 28.5118 26.8227L31.9223 24.5522C32.7247 24.0167 33.6387 23.6716 34.5947 23.5432C35.5507 23.4148 36.5235 23.5065 37.4387 23.8112L44 25.9993H6ZM6 25.9993L3.02967 2.24935L6 25.9993Z" stroke="white" stroke-width="0.730159" stroke-linecap="round" stroke-linejoin="round"/>
</svg>
