<svg width="43" height="62" viewBox="0 0 43 62" fill="none" xmlns="http://www.w3.org/2000/svg">
<path d="M42.2812 43C42.2812 53.3437 32.8242 61.75 21.1875 61.75C9.55078 61.75 0.09375 53.3437 0.09375 43C0.09375 33.625 7.125 33.625 7.125 24.25C7.125 19.75 9.76172 15.5625 14.1562 13.3125C15.5625 12.5937 17.0391 12.125 18.5508 11.875V8.625C18.5508 7.46875 18.2695 6.8125 17.7773 6.375C17.3203 5.9375 16.3711 5.5 14.1562 5.5V0.8125C17.25 0.8125 19.7813 1.53125 21.5039 3.0625C23.2266 4.59375 23.8242 6.6875 23.8242 8.625V11.875C25.3359 12.125 26.8477 12.5937 28.2188 13.3125C32.6133 15.5625 35.25 19.75 35.25 24.25C35.25 33.625 42.2812 33.625 42.2812 43Z" fill="white"/>
</svg>
