<svg width="58" height="58" viewBox="0 0 58 58" fill="none" xmlns="http://www.w3.org/2000/svg">
<path d="M57.367 39.5294C58.013 37.9904 56.1668 36.6794 54.6183 37.3634C51.5231 38.722 48.1788 39.4209 44.7985 39.4154C31.546 39.4154 20.8047 28.8894 20.8047 15.9029C20.7998 11.5181 22.0455 7.22292 24.3957 3.52119C25.295 2.10252 24.2152 0.139187 22.5685 0.557187C9.87333 3.79669 0.5 15.108 0.5 28.5632C0.5 44.5454 13.7208 57.5002 30.0323 57.5002C42.3823 57.5002 52.959 50.0744 57.367 39.5294Z" fill="white"/>
<path d="M40.4349 0.826489C38.7565 -0.294511 36.7552 1.70682 37.873 3.38516L39.868 6.37766C40.6773 7.59101 41.1092 9.01684 41.1092 10.4753C41.1092 11.9338 40.6773 13.3596 39.868 14.573L37.873 17.5655C36.7552 19.2438 38.7597 21.2452 40.438 20.1242L43.4274 18.1292C44.6407 17.3199 46.0665 16.888 47.525 16.888C48.9835 16.888 50.4093 17.3199 51.6227 18.1292L54.6152 20.1242C56.2935 21.2452 58.2949 19.2438 57.1739 17.5655L55.1789 14.573C54.3696 13.3596 53.9377 11.9338 53.9377 10.4753C53.9377 9.01684 54.3696 7.59101 55.1789 6.37766L57.1739 3.38516C58.2949 1.70682 56.2935 -0.294511 54.612 0.826489L51.6227 2.82149C50.4093 3.63079 48.9835 4.06267 47.525 4.06267C46.0665 4.06267 44.6407 3.63079 43.4274 2.82149L40.4349 0.826489Z" fill="white"/>
</svg>
