<svg width="13" height="14" viewBox="0 0 13 14" fill="none" xmlns="http://www.w3.org/2000/svg">
<path fill-rule="evenodd" clip-rule="evenodd" d="M6.5 12.9114C9.6364 12.9114 12.1789 10.3688 12.1789 7.23242C12.1789 4.09603 9.6364 1.55347 6.5 1.55347C3.3636 1.55347 0.821053 4.09603 0.821053 7.23242C0.821053 10.3688 3.3636 12.9114 6.5 12.9114ZM6.5 13.7324C10.0899 13.7324 13 10.8223 13 7.23242C13 3.64257 10.0899 0.732422 6.5 0.732422C2.91015 0.732422 0 3.64257 0 7.23242C0 10.8223 2.91015 13.7324 6.5 13.7324Z" fill="#999999"/>
<path fill-rule="evenodd" clip-rule="evenodd" d="M5.74756 3.46973H6.56861V7.06284L9.18521 9.67944L8.60464 10.26L5.74756 7.40293V3.46973Z" fill="#999999"/>
</svg>
