<svg width="16" height="13" viewBox="0 0 16 13" fill="none" xmlns="http://www.w3.org/2000/svg">
<path d="M8.52871 9.90468C9.6157 9.90468 10.4969 9.07322 10.4969 8.04756C10.4969 7.02189 9.6157 6.19043 8.52871 6.19043C7.44172 6.19043 6.56055 7.02189 6.56055 8.04756C6.56055 9.07322 7.44172 9.90468 8.52871 9.90468Z" fill="#5E5E5E"/>
<path d="M1.96816 4.3333C1.96816 4.67377 2.26338 4.95234 2.62421 4.95234C2.98504 4.95234 3.28027 4.67377 3.28027 4.3333V3.09521H4.59237C4.9532 3.09521 5.24843 2.81664 5.24843 2.47617C5.24843 2.1357 4.9532 1.85713 4.59237 1.85713H3.28027V0.619043C3.28027 0.278569 2.98504 0 2.62421 0C2.26338 0 1.96816 0.278569 1.96816 0.619043V1.85713H0.656053C0.295224 1.85713 0 2.1357 0 2.47617C0 2.81664 0.295224 3.09521 0.656053 3.09521H1.96816V4.3333Z" fill="#5E5E5E"/>
<path d="M13.7767 3.09502H11.697L10.8835 2.25931C10.7613 2.13265 10.6124 2.03145 10.4463 1.96216C10.2803 1.89288 10.1007 1.85704 9.91914 1.85693H5.7204C5.83193 2.04265 5.90409 2.24693 5.90409 2.47598C5.90409 3.15692 5.31365 3.71406 4.59199 3.71406H3.93593V4.3331C3.93593 5.01405 3.34549 5.57119 2.62383 5.57119C2.38109 5.57119 2.16459 5.50309 1.96777 5.39786V11.7616C1.96777 12.4426 2.55822 12.9997 3.27988 12.9997H13.7767C14.4984 12.9997 15.0888 12.4426 15.0888 11.7616V4.3331C15.0888 3.65216 14.4984 3.09502 13.7767 3.09502ZM8.52831 11.1426C6.7176 11.1426 5.24804 9.75592 5.24804 8.04736C5.24804 6.3388 6.7176 4.95215 8.52831 4.95215C10.339 4.95215 11.8086 6.3388 11.8086 8.04736C11.8086 9.75592 10.339 11.1426 8.52831 11.1426Z" fill="#5E5E5E"/>
</svg>
