<svg width="16" height="16" viewBox="0 0 16 16" fill="none" xmlns="http://www.w3.org/2000/svg">
<path d="M7.99998 11.7646C5.91595 11.7646 4.20166 10.0503 4.20166 7.96628C4.20166 5.88225 5.91595 4.16797 7.99998 4.16797C10.084 4.16797 11.7983 5.88225 11.7983 7.96628C11.7983 10.0503 10.084 11.7646 7.99998 11.7646ZM7.99998 4.97469C6.35292 4.97469 5.00839 6.31923 5.00839 7.96628C5.00839 9.61334 6.35292 10.9579 7.99998 10.9579C9.64704 10.9579 10.9916 9.61334 10.9916 7.96628C10.9916 6.31923 9.64704 4.97469 7.99998 4.97469Z" fill="white"/>
<path d="M9.14285 16H6.85714L6.21849 14.0504C5.78151 13.916 5.37815 13.7479 4.97479 13.5462L3.12605 14.4874L1.5126 12.874L2.45378 11.0252C2.2521 10.6219 2.05042 10.2185 1.94958 9.78151L0 9.14286V6.85715L1.94958 6.21849C2.08403 5.78151 2.2521 5.37816 2.45378 4.9748L1.5126 3.12606L3.12605 1.5126L4.97479 2.45379C5.37815 2.25211 5.78151 2.05043 6.21849 1.94959L6.85714 0H9.14285L9.78151 1.94959C10.2185 2.08404 10.6218 2.25211 11.0252 2.45379L12.8739 1.5126L14.4874 3.12606L13.5462 4.9748C13.7479 5.37816 13.9496 5.78151 14.0504 6.21849L16 6.85715V9.14286L14.0504 9.78151C13.916 10.2185 13.7479 10.6219 13.5462 11.0252L14.4874 12.874L12.8739 14.4874L11.0252 13.5462C10.6218 13.7479 10.2185 13.9496 9.78151 14.0504L9.14285 16ZM7.42857 15.2269H8.57143L9.17647 13.4118L9.37815 13.3445C9.88235 13.2101 10.3529 13.0084 10.8235 12.7395L11.0252 12.6387L12.7395 13.5126L13.5462 12.7059L12.6723 10.9916L12.7731 10.7899C13.042 10.3529 13.2437 9.84874 13.3781 9.34454L13.4454 9.14286L15.2605 8.53782V7.39496L13.4454 6.78992L13.3781 6.58824C13.2437 6.08403 13.042 5.57984 12.7731 5.14286L12.6723 4.94118L13.5462 3.22689L12.7395 2.42017L11.0252 3.29412L10.8235 3.19328C10.3866 2.92437 9.88235 2.72269 9.37815 2.58824L9.17647 2.52101L8.57143 0.705884H7.42857L6.82353 2.52101L6.62185 2.58824C6.11765 2.72269 5.64706 2.92437 5.17647 3.19328L4.97479 3.29412L3.2605 2.42017L2.45378 3.22689L3.32773 4.94118L3.22689 5.14286C2.95798 5.57984 2.7563 6.08403 2.62185 6.58824L2.55462 6.78992L0.739495 7.39496V8.53782L2.55462 9.14286L2.62185 9.34454C2.7563 9.84874 2.95798 10.3529 3.22689 10.7899L3.32773 10.9916L2.45378 12.7059L3.2605 13.5126L4.97479 12.6387L5.17647 12.7395C5.61345 13.0084 6.11765 13.2101 6.62185 13.3445L6.82353 13.4118L7.42857 15.2269Z" fill="white"/>
</svg>
