<svg width="9" height="9" viewBox="0 0 9 9" fill="none" xmlns="http://www.w3.org/2000/svg">
<path d="M1.62645 8.05001C1.18785 8.05001 0.785812 7.88553 0.475142 7.57486C0.164472 7.26419 0 6.86215 0 6.42356C0 5.98497 0.164472 5.58292 0.475142 5.27225L5.11692 0.630477C5.95755 -0.210159 7.34643 -0.210159 8.18707 0.630477C8.58911 1.03252 8.82668 1.58076 8.82668 2.16555C8.82668 2.75034 8.60738 3.28031 8.18707 3.70063L4.71487 7.17282L4.34938 6.80733L7.82157 3.33514C8.46119 2.69552 8.46119 1.63559 7.82157 0.995971C7.18196 0.356357 6.12202 0.356357 5.48241 0.995971L0.840636 5.63774C0.62134 5.83877 0.511691 6.13116 0.511691 6.42356C0.511691 6.71595 0.62134 7.00835 0.840636 7.20937C1.27923 7.64796 1.97367 7.64796 2.41226 7.20937L5.88445 3.73718C6.10375 3.51788 6.10375 3.15239 5.88445 2.93309C5.66516 2.71379 5.29966 2.71379 5.08037 2.93309L2.75948 5.25398L2.39399 4.88849L4.71487 2.5676C5.13519 2.14728 5.81135 2.14728 6.23167 2.5676C6.65199 2.98791 6.65199 3.66408 6.23167 4.08439L2.75948 7.55659C2.46708 7.88553 2.06504 8.05001 1.62645 8.05001Z" fill="#56CCF2"/>
</svg>
