<svg width="17" height="18" viewBox="0 0 17 18" fill="none" xmlns="http://www.w3.org/2000/svg">
<path d="M14.4936 13.8936H3.48718C3.30556 13.8936 3.16026 13.8167 3.08761 13.6629C2.97863 13.509 2.97863 13.3167 3.05128 13.1629L3.99573 10.6244L3.05128 1.16287H0V0.0859375H3.48718C3.74145 0.0859375 3.9594 0.27825 3.99573 0.547481L5.01282 10.5859C5.01282 10.6629 5.01282 10.7398 4.9765 10.8552L4.25 12.7782H14.4936V13.8936Z" fill="white"/>
<path d="M4.61313 11.2402L4.39518 10.2018L15.9828 7.66331V3.31716H3.99561V2.24023H16.4913C16.7819 2.24023 16.9999 2.471 16.9999 2.77869V8.08639C16.9999 8.35562 16.8183 8.54792 16.6003 8.58639L4.61313 11.2402Z" fill="white"/>
<path d="M15.0023 17.0862C13.9125 17.0862 13.0044 16.1247 13.0044 14.9709C13.0044 13.817 13.9125 12.8555 15.0023 12.8555C16.092 12.8555 17.0001 13.817 17.0001 14.9709C17.0001 16.1247 16.092 17.0862 15.0023 17.0862ZM15.0023 13.8939C14.4574 13.8939 13.9852 14.3555 13.9852 14.9709C13.9852 15.5862 14.4211 16.0478 15.0023 16.0478C15.5835 16.0478 16.0194 15.5862 16.0194 14.9709C16.0194 14.3555 15.5471 13.8939 15.0023 13.8939Z" fill="white"/>
<path d="M3.01495 17.0862C1.92521 17.0862 1.01709 16.1247 1.01709 14.9709C1.01709 13.817 1.92521 12.8555 3.01495 12.8555C4.1047 12.8555 5.01282 13.817 5.01282 14.9709C5.01282 16.1247 4.1047 17.0862 3.01495 17.0862ZM3.01495 13.8939C2.47008 13.8939 1.99786 14.3555 1.99786 14.9709C1.99786 15.5862 2.43376 16.0478 3.01495 16.0478C3.59615 16.0478 4.03205 15.5862 4.03205 14.9709C4.03205 14.3555 3.55982 13.8939 3.01495 13.8939Z" fill="white"/>
</svg>
