<svg width="21" height="21" viewBox="0 0 21 21" fill="none" xmlns="http://www.w3.org/2000/svg">
<path d="M4.2353 20.173H3.13236L3.79412 19.2274C4.27941 18.5069 4.63235 17.6513 4.80882 16.5256C1.67647 15.0847 0 12.383 0 8.82568C0 3.37718 4.01471 0 10.5 0C16.9853 0 21 3.37718 21 8.82568C21 14.3192 17.0735 17.6513 10.5 17.6513C10.3677 17.6513 10.1912 17.6513 10.0588 17.6513C9.00001 18.8221 7.2353 20.173 4.2353 20.173ZM10.4118 1.17076C4.54412 1.17076 1.05882 4.00758 1.05882 8.82568C1.05882 12.9233 3.52941 14.7695 5.55883 15.625L5.95588 15.8052L5.91176 16.2555C5.77941 17.2911 5.55883 18.1917 5.20589 18.9572C7.32354 18.687 8.55882 17.6063 9.22058 16.7058L9.39707 16.4806H9.79412C9.97059 16.4806 10.1912 16.4806 10.3676 16.4806C18.7941 16.4806 19.7206 11.1222 19.7206 8.82568C19.7647 4.05261 16.2794 1.17076 10.4118 1.17076Z" fill="white"/>
</svg>
