<svg width="74" height="88" viewBox="0 0 74 88" fill="none" xmlns="http://www.w3.org/2000/svg">
<path d="M27.2965 5.70161L37.0706 6.10352e-05V3.09519L27.4594 8.79674L27.2965 5.70161Z" fill="white"/>
<path d="M0.580536 20.6886L10.3546 14.9871V18.0822L0.580536 23.7838V20.6886Z" fill="white"/>
<path d="M0.580536 57.8302L10.3546 52.1287V55.2238L0.580536 60.9253V57.8302Z" fill="white"/>
<path d="M0.580536 27.8561L10.3546 22.1546V25.2497L0.580536 30.9512V27.8561Z" fill="white"/>
<path d="M0.580536 65.3236L10.3546 59.622V62.7172L0.580536 68.4187V65.3236Z" fill="white"/>
<path d="M0.580536 34.698L10.3546 28.9964V32.0916L0.580536 37.7931V34.698Z" fill="white"/>
<path d="M0.580536 72.491L10.3546 66.7895V69.8846L0.580536 75.5862V72.491Z" fill="white"/>
<path d="M27.2965 42.5173L37.0706 36.8157V39.9108L27.4594 45.6124L27.2965 42.5173Z" fill="white"/>
<path d="M27.2965 12.2176L37.0706 6.51602V9.61115L27.4594 15.3127L27.2965 12.2176Z" fill="white"/>
<path d="M27.2965 50.0109L37.0706 44.3094V47.4045L27.4594 53.1061L27.2965 50.0109Z" fill="white"/>
<path d="M27.2965 19.0594L37.0706 13.3579V16.453L27.4594 22.1546L27.2965 19.0594Z" fill="white"/>
<path d="M27.2965 57.5043L37.0706 51.8028V54.8979L27.4594 60.5994L27.2965 57.5043Z" fill="white"/>
<path d="M1.0694 41.377L37.0706 20.3627V24.5981L1.0694 45.2866V41.377Z" fill="white"/>
<path d="M1.0694 49.3592L37.0706 28.3449V32.5804L1.0694 53.2689V49.3592Z" fill="white"/>
<path fill-rule="evenodd" clip-rule="evenodd" d="M37.0706 6.10352e-05L72.9089 20.6885V31.2771L63.4606 36.9787L72.9089 42.6802V52.7801L62.1574 58.9704L73.3976 65.3235V76.5637L37.0706 55.2236V6.10352e-05ZM46.5188 27.5303V16.1272L63.1348 25.7384L53.5236 31.2771L46.5188 27.5303ZM46.5188 37.6302L62.809 47.0785L52.7091 53.5946L46.5188 50.0107V37.6302Z" fill="white"/>
<path d="M26.048 74.8601V68.5124H24.9174V71.1518H21.8293V68.5124H20.6944V74.8601H21.8293V72.1063H24.9174V74.8601H26.048ZM31.0982 73.9011H28.1245V72.0888H30.9354V71.187H28.1245V69.4714H31.0982V68.5124H26.9895V74.8601H31.0982V73.9011ZM36.0516 74.8601H37.2481L34.9958 68.5124H33.7157L31.4635 74.8601H32.6336L33.1747 73.2193H35.5105L36.0516 74.8601ZM34.3272 69.6341H34.358L35.2422 72.3439H33.4386L34.3272 69.6341ZM41.766 73.9011H38.8847V68.5124H37.7498V74.8601H41.766V73.9011ZM44.212 74.8601V69.4714H46.108V68.5124H41.1811V69.4714H43.0815V74.8601H44.212ZM52.06 74.8601V68.5124H50.9294V71.1518H47.8414V68.5124H46.7064V74.8601H47.8414V72.1063H50.9294V74.8601H52.06ZM20.778 83.8601C22.1329 83.8601 22.9555 83.1739 22.9555 82.0565C22.9555 81.2163 22.3528 80.5961 21.4906 80.5125V80.4773C22.1417 80.3717 22.6476 79.7779 22.6476 79.096C22.6476 78.1326 21.9041 77.5124 20.7516 77.5124H18.1166V83.8601H20.778ZM19.2515 78.3966H20.4657C21.1431 78.3966 21.5258 78.7089 21.5258 79.2632C21.5258 79.8526 21.0815 80.187 20.2897 80.187H19.2515V78.3966ZM19.2515 82.9759V80.992H20.4701C21.3411 80.992 21.7986 81.3307 21.7986 81.9773C21.7986 82.6284 21.3543 82.9759 20.5184 82.9759H19.2515ZM27.7329 83.8601H28.9295L26.6772 77.5124H25.3971L23.1448 83.8601H24.3149L24.856 82.2193H27.1919L27.7329 83.8601ZM26.0085 78.6341H26.0393L26.9235 81.3439H25.12L26.0085 78.6341ZM33.4474 82.9011H30.5661V77.5124H29.4311V83.8601H33.4474V82.9011ZM38.2292 83.8601H39.4258L37.1735 77.5124H35.8934L33.6411 83.8601H34.8112L35.3523 82.2193H37.6882L38.2292 83.8601ZM36.5049 78.6341H36.5356L37.4198 81.3439H35.6163L36.5049 78.6341ZM41.0228 83.8601V79.4083H41.0624L44.2164 83.8601H45.193V77.5124H44.1021V81.9598H44.0625L40.9128 77.5124H39.9274V83.8601H41.0228ZM48.8707 83.9657C50.3708 83.9657 51.4089 83.1431 51.6069 81.7838H50.4939C50.318 82.5492 49.7153 83.0023 48.8751 83.0023C47.7754 83.0023 47.0803 82.1093 47.0803 80.684C47.0803 79.2676 47.7798 78.3702 48.8707 78.3702C49.6933 78.3702 50.34 78.8937 50.4895 79.6899H51.6069C51.4661 78.3262 50.3444 77.4068 48.8707 77.4068C47.0671 77.4068 45.919 78.6605 45.919 80.684C45.919 82.7208 47.0583 83.9657 48.8707 83.9657ZM56.3975 82.9011H53.4238V81.0888H56.2348V80.187H53.4238V78.4714H56.3975V77.5124H52.2889V83.8601H56.3975V82.9011Z" fill="white"/>
</svg>
