<svg width="43" height="46" viewBox="0 0 43 46" fill="none" xmlns="http://www.w3.org/2000/svg">
<path d="M15.8478 4.21937L21.6044 0.861328V2.68427L15.9437 6.04231L15.8478 4.21937Z" fill="black"/>
<path d="M0.112915 13.0465L5.86956 9.68848V11.5114L0.112915 14.8695V13.0465Z" fill="black"/>
<path d="M0.112915 34.9215L5.86956 31.5635V33.3864L0.112915 36.7445V34.9215Z" fill="black"/>
<path d="M0.112915 17.2677L5.86956 13.9097V15.7326L0.112915 19.0907V17.2677Z" fill="black"/>
<path d="M0.112915 39.3346L5.86956 35.9766V37.7995L0.112915 41.1575V39.3346Z" fill="black"/>
<path d="M0.112915 21.2975L5.86956 17.9395V19.7624L0.112915 23.1204V21.2975Z" fill="black"/>
<path d="M0.112915 43.5568L5.86956 40.1987V42.0217L0.112915 45.3797V43.5568Z" fill="black"/>
<path d="M15.8478 25.903L21.6044 22.5449V24.3679L15.9437 27.7259L15.8478 25.903Z" fill="black"/>
<path d="M15.8478 8.05678L21.6044 4.69873V6.52167L15.9437 9.87971L15.8478 8.05678Z" fill="black"/>
<path d="M15.8478 30.3165L21.6044 26.9585V28.7814L15.9437 32.1395L15.8478 30.3165Z" fill="black"/>
<path d="M15.8478 12.0866L21.6044 8.72852V10.5515L15.9437 13.9095L15.8478 12.0866Z" fill="black"/>
<path d="M15.8478 34.7296L21.6044 31.3716V33.1945L15.9437 36.5526L15.8478 34.7296Z" fill="black"/>
<path d="M0.400635 25.2313L21.6043 12.8545V15.349L0.400635 27.5339V25.2313Z" fill="black"/>
<path d="M0.562378 29.8773L21.766 17.5005V19.995L0.562378 32.1799V29.8773Z" fill="black"/>
<path fill-rule="evenodd" clip-rule="evenodd" d="M21.6045 0.861328L42.7122 13.0462V19.2826L37.1474 22.6406L42.7122 25.9987V31.9472L36.3799 35.5931L43 39.3349V45.9551L21.6045 33.3864V0.861328ZM27.1692 17.0762V10.3601L36.9555 16.0208L31.2948 19.2829L27.1692 17.0762ZM27.1692 23.0248L36.7636 28.5895L30.8151 32.4273L27.1692 30.3165V23.0248Z" fill="black"/>
</svg>
