<svg width="21" height="24" viewBox="0 0 21 24" fill="none" xmlns="http://www.w3.org/2000/svg">
<path d="M17.5571 12.8446C17.5451 10.9594 18.4734 9.53852 20.3481 8.49084C19.2996 7.10868 17.7133 6.3485 15.6223 6.20199C13.6425 6.05824 11.4764 7.26348 10.6833 7.26348C9.84506 7.26348 7.92833 6.25174 6.42017 6.25174C3.30773 6.29597 0 8.53507 0 13.0907C0 14.4369 0.267382 15.8273 0.802146 17.2592C1.51717 19.1445 4.09485 23.7637 6.78369 23.689C8.1897 23.6586 9.18412 22.7713 11.0137 22.7713C12.7893 22.7713 13.7086 23.689 15.2768 23.689C17.9897 23.6531 20.321 19.4541 21 17.5633C17.3618 15.9849 17.5571 12.9414 17.5571 12.8446ZM14.3996 4.41347C15.9227 2.74936 15.7845 1.23451 15.7395 0.689941C14.3936 0.761814 12.8373 1.53306 11.9511 2.48122C10.9747 3.49849 10.4009 4.75625 10.524 6.17434C11.9781 6.27662 13.306 5.58831 14.3996 4.41347Z" fill="#8F8F8F"/>
</svg>
