<svg width="15" height="15" viewBox="0 0 15 15" fill="none" xmlns="http://www.w3.org/2000/svg">
<path d="M9.01855 2.42749C9.0614 2.42741 9.10385 2.43578 9.14346 2.45212C9.18308 2.46846 9.21908 2.49245 9.24942 2.52271L12.4777 5.75097C12.5388 5.81212 12.5732 5.89505 12.5732 5.98151C12.5732 6.06798 12.5388 6.15091 12.4777 6.21206C12.1646 6.5251 11.7786 6.59553 11.4975 6.59553C11.382 6.59553 11.279 6.5838 11.1975 6.5701L9.15355 8.61401C9.20736 8.8308 9.24227 9.05185 9.2579 9.27466C9.2879 9.73249 9.23703 10.3749 8.78833 10.8236C8.72718 10.8847 8.64426 10.9191 8.55779 10.9191C8.47132 10.9191 8.3884 10.8847 8.32725 10.8236L6.48225 8.97923L4.40703 11.0544C4.27985 11.1816 3.61203 11.6427 3.48485 11.5155C3.35768 11.3884 3.81877 10.7199 3.94594 10.5934L6.02116 8.51814L4.17681 6.67314C4.11568 6.61199 4.08134 6.52907 4.08134 6.4426C4.08134 6.35613 4.11568 6.27321 4.17681 6.21206C4.62551 5.76336 5.2679 5.71184 5.72572 5.74249C5.94854 5.7581 6.16959 5.79302 6.38638 5.84684L8.43029 3.80358C8.41323 3.70426 8.4045 3.60369 8.4042 3.50293C8.4042 3.22249 8.47464 2.8364 8.78833 2.52271C8.84945 2.46175 8.93223 2.42751 9.01855 2.42749ZM9.09812 3.80488V3.80358V3.80488ZM9.09812 3.80358V3.80488C9.11695 3.86225 9.11948 3.92373 9.10543 3.98245C9.09139 4.04118 9.06131 4.09485 9.01855 4.13749L6.71312 6.44227C6.67028 6.48493 6.61643 6.51483 6.55758 6.52865C6.49873 6.54247 6.4372 6.53966 6.37985 6.52053H6.37855L6.36942 6.51793C6.30737 6.49934 6.24473 6.48281 6.18159 6.46836C6.01753 6.43009 5.85071 6.40479 5.68268 6.39271C5.40746 6.37445 5.13746 6.39793 4.91638 6.49053L8.50985 10.0834C8.60181 9.86162 8.62529 9.59227 8.60703 9.31706C8.59041 9.08405 8.54843 8.85356 8.48181 8.62967L8.4792 8.62119V8.62053C8.45994 8.5631 8.45707 8.50144 8.47089 8.44246C8.48471 8.38348 8.51469 8.32952 8.55746 8.28662L10.8635 5.98119C10.908 5.93651 10.9644 5.90565 11.0259 5.89234C11.0875 5.87903 11.1516 5.88384 11.2105 5.90619L11.2731 5.92053C11.3299 5.93162 11.4088 5.94271 11.4975 5.94271C11.5718 5.94271 11.6475 5.93553 11.7212 5.91662L9.08312 3.27923C9.0642 3.35293 9.05703 3.42923 9.05703 3.50293C9.05735 3.60426 9.07094 3.70512 9.09746 3.80293L9.09812 3.80358Z" fill="#999999"/>
<circle cx="7.5" cy="7.5" r="7.25" stroke="#999999" stroke-width="0.5"/>
</svg>
