<svg width="17" height="15" viewBox="0 0 17 15" fill="none" xmlns="http://www.w3.org/2000/svg">
<path d="M3.1325 15C2.28778 15 1.51346 14.6935 0.915113 14.1146C0.31677 13.5358 0 12.7866 0 11.9694C0 11.1521 0.31677 10.4029 0.915113 9.82406L9.85507 1.1748C11.4741 -0.3916 14.1491 -0.3916 15.7681 1.1748C16.5424 1.92395 17 2.94551 17 4.03518C17 5.12486 16.5776 6.11238 15.7681 6.89558L9.08074 13.3655L8.37681 12.6845L15.0642 6.21453C16.2961 5.02271 16.2961 3.04767 15.0642 1.85585C13.8323 0.664018 11.7909 0.664018 10.559 1.85585L1.61905 10.5051C1.19669 10.8797 0.985506 11.4245 0.985506 11.9694C0.985506 12.5142 1.19669 13.059 1.61905 13.4336C2.46377 14.2508 3.80124 14.2508 4.64596 13.4336L11.3333 6.96368C11.7557 6.55505 11.7557 5.87401 11.3333 5.46538C10.911 5.05676 10.207 5.05676 9.78468 5.46538L5.3147 9.79002L4.61077 9.10897L9.08074 4.78434C9.89027 4.00114 11.1925 4.00114 12.0021 4.78434C12.8116 5.56754 12.8116 6.82747 12.0021 7.61067L5.3147 14.0806C4.75155 14.6935 3.97722 15 3.1325 15Z" fill="#C7C7C7"/>
</svg>
