<svg width="41" height="41" viewBox="0 0 41 41" fill="none" xmlns="http://www.w3.org/2000/svg">
<path d="M31.3626 8.57025C33.837 8.57025 35.8429 6.71743 35.8429 4.43185C35.8429 2.14628 33.837 0.293457 31.3626 0.293457C28.8881 0.293457 26.8822 2.14628 26.8822 4.43185C26.8822 6.71743 28.8881 8.57025 31.3626 8.57025Z" fill="black"/>
<path d="M28.6228 18.8525C29.1371 19.5604 29.8747 20.1049 30.7355 20.4121C31.5964 20.7194 32.5388 20.7745 33.4347 20.57L40.8631 18.8546L39.7811 14.8403L32.3527 16.5557L29.2635 12.2786C28.6035 11.3652 27.5791 10.73 26.414 10.5115L17.7982 8.91823C16.8344 8.73956 15.8336 8.85896 14.9506 9.25801C14.0675 9.65705 13.3513 10.3135 12.9124 11.1261L9.19818 17.9876L13.2059 19.8395L16.9201 12.976L21.3265 13.7912L9.93296 31.332H0V35.4704H9.93296C11.4966 35.4704 12.9684 34.7006 13.7749 33.4612L18.0715 26.848L29.651 28.9875L33.7192 40.2627L37.9666 38.9529L33.9007 27.6798C33.6497 26.9877 33.2058 26.3689 32.6135 25.8857C32.0212 25.4026 31.3015 25.0722 30.5269 24.9277L23.719 23.6717L27.6886 17.5593L28.6228 18.8525Z" fill="black"/>
</svg>
